<svg width="80" height="80" viewBox="0 0 80 80" fill="none" xmlns="http://www.w3.org/2000/svg">
<g clip-path="url(#clip0_1906_12661)">
<path d="M74.3941 12.887C73.9912 11.6235 73.2729 10.6342 72.3787 9.92493C71.8257 9.48669 71.5126 8.81287 71.5126 8.1073V2.34375C71.5126 1.69678 70.9883 1.17188 70.3407 1.17188H67.997C67.35 1.17188 66.8251 1.69678 66.8251 2.34375V7.23206C66.8251 8.09753 66.3515 8.89832 65.5843 9.29871C64.4795 9.87549 63.5243 10.8081 62.903 12.1094C60.2834 17.5958 55.6343 28.9551 46.0854 38.4857C36.5547 48.0347 25.1955 52.6837 19.709 55.3033C14.6834 57.7026 15.1271 65.0867 20.4866 66.7944C23.6171 67.7917 27.0943 68.2697 30.7344 68.2037C41.3558 68.0121 52.527 62.0551 61.0909 53.4912C69.6553 44.9274 75.6117 33.7561 75.804 23.1348C75.8693 19.4946 75.3914 16.0175 74.3941 12.887Z" fill="#FFCF5D"/>
<path d="M69.4656 13.5974C69.6774 13.7653 69.8287 13.9984 69.9276 14.3103C70.7736 16.9659 71.1739 19.906 71.1172 23.0505C70.9579 31.842 65.9707 41.9824 57.7767 50.177C49.5822 58.3716 39.4412 63.3588 30.6497 63.5175C28.1655 63.5626 26.1691 65.5322 26.0537 67.9791C27.5723 68.1573 29.1378 68.233 30.7345 68.2043C41.3558 68.0121 52.5271 62.0557 61.0909 53.4918C69.6554 44.9274 75.6118 33.7561 75.8041 23.1348C75.8694 19.4946 75.3915 16.0175 74.3942 12.887C73.9913 11.6235 73.2729 10.6342 72.3788 9.92493C71.8258 9.48669 71.5127 8.81287 71.5127 8.1073V2.34375C71.5127 1.69678 70.9884 1.17188 70.3408 1.17188H67.9971C67.3501 1.17188 66.8252 1.69678 66.8252 2.34375V8.1073C66.8252 10.2655 67.7877 12.2662 69.4656 13.5974Z" fill="#FFB545"/>
<path d="M14.9386 35.511L10.997 33.0153C10.0057 32.3873 8.76002 33.3223 9.10303 34.4368L10.2597 38.1935C11.1215 40.9938 12.9061 43.4279 15.328 45.1082L19.2007 47.6564C19.2013 43.0934 19.0243 38.0983 14.9386 35.511Z" fill="#28D05B"/>
<path d="M25.6829 45.9551C23.4106 45.872 21.209 46.4635 19.2004 47.5841C17.1929 46.4641 14.9908 45.8714 12.7184 45.9551C7.96685 46.1577 4.54949 48.7059 2.72698 51.9865C0.897761 55.3215 0.663996 59.3895 2.12274 63.878C4.35357 70.7225 10.274 76.8541 15.8984 77.1751C16.4507 77.213 16.9909 77.2014 17.5164 77.1459C18.6285 77.0287 19.7729 77.0287 20.8849 77.1459C21.4105 77.2014 21.9506 77.213 22.503 77.1751C28.1268 76.8541 34.0478 70.7225 36.2786 63.878C37.7374 59.3895 37.503 55.3215 35.6744 51.9865C33.8519 48.7059 30.4345 46.1577 25.6829 45.9551Z" fill="#FF5368"/>
<path d="M35.6743 51.9866C34.7826 50.3807 33.5076 48.9513 31.8816 47.8862C32.0519 48.1432 32.2124 48.4056 32.3613 48.6736C34.1906 52.0085 34.4249 56.0759 32.9656 60.5651C31.4678 65.161 28.3062 69.4353 24.688 71.845C22.6897 73.1755 20.3319 73.8622 17.9308 73.8622H8.7041C10.9386 75.7891 13.4465 77.0354 15.8983 77.1752C16.4507 77.213 16.9908 77.2014 17.517 77.1459C18.637 77.0269 19.7667 77.0281 20.8867 77.1459C21.4116 77.2014 21.9512 77.2124 22.5035 77.1752C28.1273 76.8541 34.0483 70.7225 36.2792 63.8781C37.7379 59.3895 37.5035 55.3215 35.6743 51.9866Z" fill="#D9435B"/>
<path d="M67.8676 48.2031C67.375 46.1426 65.522 44.6094 63.3101 44.6094C61.0975 44.6094 59.2451 46.1426 58.752 48.2031C52.3463 50.1538 47.6851 56.1084 47.6851 63.1519C47.6851 71.7816 54.6803 78.7769 63.3101 78.7769C71.9392 78.7769 78.9351 71.7816 78.9351 63.1519C78.9351 56.1084 74.2738 50.1538 67.8676 48.2031Z" fill="#FF983B"/>
<path d="M72.577 50.5718C74.4905 53.1646 75.6215 56.3695 75.6215 59.8394C75.6215 68.4685 68.6262 75.4637 59.9965 75.4637C56.5272 75.4637 53.3223 74.3328 50.7295 72.4193C53.575 76.2755 58.1501 78.7767 63.3101 78.7767C71.9392 78.7767 78.9351 71.7815 78.9351 63.1517C78.9351 57.9924 76.4332 53.4172 72.577 50.5718Z" fill="#FF7E40"/>
<path d="M72.2358 48.7672L71.0792 45.0105C70.2174 42.2102 68.4334 39.7755 66.0109 38.0958L64.4819 37.0893C63.4761 36.4277 62.1382 37.1491 62.1382 38.3527V40.0178C62.1382 43.1513 63.6366 45.9431 66.4003 47.693L70.3419 50.1893C71.3331 50.8161 72.5795 49.8817 72.2358 48.7672Z" fill="#28D05B"/>
<path d="M52.5035 19.7382C52.2399 19.1529 51.5337 18.91 50.941 19.1553L50.2843 19.4275L50.7872 18.9246C51.2407 18.4705 51.2871 17.7253 50.847 17.2583C50.3917 16.7756 49.6306 16.7664 49.1643 17.2327L48.6272 17.7698L48.9177 17.0679C49.1655 16.4698 48.8817 15.7843 48.2836 15.5365C47.6854 15.2881 47 15.5732 46.7522 16.1713L46.1162 17.7076C45.9648 18.0726 46.0124 18.4595 46.1974 18.7635C46.5105 19.2798 46.4604 19.936 46.0338 20.3632C45.5803 20.8167 45.5345 21.5619 45.9746 22.0289C46.4305 22.5123 47.191 22.5202 47.6567 22.0545L47.6793 22.0319C48.1121 21.5992 48.7749 21.5522 49.3016 21.8634C49.605 22.0429 49.9877 22.0868 50.3472 21.9379L51.8834 21.3019C52.4925 21.0498 52.7757 20.3437 52.5035 19.7382Z" fill="#28D05B"/>
<path d="M49.253 20.459C48.3973 20.2295 47.5068 20.5017 46.9215 21.1365L43.0763 19.9365L40.2314 22.923L39.0235 27.428C39.0101 27.4243 38.9967 27.4194 38.9826 27.4158C37.7326 27.0795 36.4472 27.821 36.1116 29.071C35.7759 30.321 36.5168 31.607 37.7668 31.9427C39.0174 32.2784 40.3028 31.5369 40.6385 30.2869C40.735 29.9268 40.7502 29.5569 40.6721 29.1937C40.9114 29.917 41.5046 30.5176 42.2962 30.73C43.5469 31.0651 44.8316 30.3229 45.1667 29.0729C45.2699 28.689 45.2741 28.2861 45.1783 27.901C45.2845 28.2696 45.4829 28.6169 45.7734 28.9075C46.6883 29.823 48.1727 29.823 49.0876 28.9075C50.0031 27.9919 50.0031 26.5082 49.0876 25.5933C48.7989 25.3046 48.4455 25.1013 48.0665 24.9945C49.3086 25.3119 50.5775 24.5709 50.9101 23.3295C51.2452 22.0795 50.5036 20.7941 49.253 20.459Z" fill="#D9435B"/>
<path d="M45.9382 17.1466C44.1951 16.6803 42.6039 18.2807 43.0677 20.0165C42.7968 19.0003 41.8727 18.2801 40.804 18.2801C40.2046 18.2801 39.6046 18.5089 39.1469 18.9667C38.2313 19.8822 38.2313 21.366 39.1469 22.2809C39.463 22.5977 39.8457 22.8052 40.251 22.9029C38.9747 22.5287 37.6637 23.2868 37.3268 24.5465C36.9923 25.7971 37.7345 27.0819 38.9851 27.4164C40.2357 27.7509 41.5205 27.0081 41.855 25.7581C41.9612 25.3607 41.9612 24.9433 41.855 24.5465C42.1199 25.5182 43.0024 26.2824 44.1188 26.2824C44.1224 26.2824 44.1261 26.2818 44.1298 26.2818C46.1909 26.2726 47.2529 23.758 45.7759 22.2815C45.4719 21.977 45.1124 21.7786 44.7358 21.6767C45.9834 22.005 47.2627 21.2635 47.5966 20.0159C47.931 18.7659 47.1882 17.4811 45.9382 17.1466Z" fill="#FF5368"/>
<path d="M46.1226 4.32324C45.8748 3.72571 45.1893 3.44189 44.5912 3.68909L43.8887 3.98022L44.4264 3.44251C44.8842 2.98474 44.8842 2.24316 44.4264 1.7854C43.9686 1.32764 43.2271 1.32764 42.7693 1.7854L42.2316 2.32312L42.5227 1.62061C42.7705 1.02307 42.4867 0.337036 41.8886 0.089844C41.291 -0.157959 40.605 0.125855 40.3572 0.723999L39.7212 2.26025L43.9522 6.4906L45.4884 5.85461C46.0866 5.60681 46.3704 4.92139 46.1226 4.32324Z" fill="#28D05B"/>
<path d="M33.8826 3.49068C36.3234 1.04989 39.9489 1.38131 42.3897 3.8221C44.8305 6.2629 45.1619 9.889 42.7211 12.3298C40.2803 14.7706 33.7819 17.3115 31.3411 14.8707C28.9003 12.4299 31.4418 5.93148 33.8826 3.49068Z" fill="#FF5368"/>
<path d="M42.3894 3.8219C41.8035 3.23596 41.1486 2.77332 40.4589 2.43945C41.5154 4.62268 41.2627 7.16174 39.4078 9.0166C37.553 10.8715 33.3562 12.7812 30.3765 12.5219C30.4589 13.4636 30.7549 14.2845 31.3408 14.8705C33.7816 17.3113 40.28 14.7704 42.7208 12.3296C45.1616 9.88879 44.8302 6.2627 42.3894 3.8219Z" fill="#D9435B"/>
<path d="M30 24.0239C30 28.3391 26.5021 31.8364 22.1875 31.8364C17.8729 31.8364 14.375 28.3391 14.375 24.0239C14.375 19.7094 17.8729 16.2114 22.1875 16.2114C26.5021 16.2114 30 19.7094 30 24.0239Z" fill="#5C87BD"/>
<path d="M25.8008 17.0977C26.366 18.1786 26.687 19.4072 26.687 20.7109C26.687 25.0261 23.1891 28.5234 18.8745 28.5234C17.5702 28.5234 16.3422 28.2024 15.2612 27.6372C16.5656 30.1323 19.1766 31.8364 22.1875 31.8364C26.5021 31.8364 30 28.3391 30 24.0239C30 21.0131 28.2959 18.402 25.8008 17.0977Z" fill="#456EA2"/>
<path d="M73.296 49.7509C73.3998 49.3346 73.3919 48.8884 73.2582 48.4532L72.1028 44.6947C71.169 41.6558 69.211 38.9788 66.5895 37.1562C66.5816 37.1508 66.5736 37.1459 66.5657 37.1404L65.0386 36.1333C63.2582 34.9596 60.8839 36.2419 60.8839 38.377V40.0432C60.8839 41.3317 61.1128 42.5664 61.5462 43.709C59.7945 44.2302 58.3705 45.551 57.7309 47.3088C54.6053 48.3971 51.8111 50.4344 49.8116 53.0974C47.6918 55.9203 46.5382 59.2656 46.4571 62.7941C43.1325 64.4884 39.8079 65.6914 36.5388 66.3835C39.1487 60.4149 39.2049 53.5936 34.7554 48.8475C36.6536 47.6635 38.4627 46.4269 40.146 45.1573C42.5648 43.3342 44.8195 41.3768 46.8495 39.3395C54.6272 31.5575 59.1017 22.9106 62.9585 14.583C63.8838 12.5847 64.3123 11.2511 66.0377 10.3447C67.1895 9.73926 67.9054 8.54968 67.9054 7.23621V2.34546H70.2461V8.11206C70.2461 9.19055 70.724 10.1885 71.5541 10.8495C72.317 11.4592 72.8651 12.2673 73.1801 13.2512C75.771 21.408 74.499 30.017 70.8473 37.7544C70.4829 38.5216 71.0384 39.4274 71.9038 39.4274C72.3543 39.4274 72.7699 39.1643 72.9616 38.7578L72.9634 38.7566C74.1774 36.1827 75.1247 33.5826 75.7765 31.0265C77.4049 24.6532 77.1846 18.1298 75.4097 12.5396C74.9605 11.1199 74.1304 9.90039 73.0086 9.01233C72.7443 8.8042 72.5868 8.46667 72.5868 8.11206V2.34546C72.5868 1.05273 71.537 0.000488281 70.2461 0.000488281H67.9054C66.6151 0.00170899 65.5659 1.05273 65.5647 2.34546V7.23621C65.5647 7.66895 65.3242 8.07239 64.9544 8.26465C62.5136 9.53845 61.8501 11.4067 60.8363 13.5918C57.7699 20.2159 53.3211 29.5549 45.1955 37.6805C41.6853 41.2029 37.6601 44.3322 32.9109 47.2313C30.8772 45.7744 28.4065 44.9285 25.6886 44.8125C24.1664 44.7563 22.6643 44.97 21.1971 45.4479C23.3833 41.1266 26.6219 38.1377 30.8607 36.541C32.1437 37.8276 33.6732 36.0424 32.6179 34.9852L31.9942 34.3596C31.6804 34.0459 31.2172 33.936 30.796 34.0764C26.3033 35.5773 22.6772 38.4941 20.1106 42.6244C19.7066 39.5507 18.597 36.4812 15.5409 34.5427L11.6048 32.0452C10.7307 31.491 9.63516 31.5392 8.81302 32.1691C7.99942 32.7916 7.668 33.8256 7.96829 34.8033L9.12369 38.5625C9.85611 40.9459 11.2209 43.1047 13.0397 44.8052C8.46206 44.832 4.09744 47.1202 1.69327 51.4562C-0.299533 55.0963 -0.53818 59.5311 1.00296 64.2821C2.16018 67.8386 4.25491 71.2383 6.90201 73.8542C9.69375 76.6136 12.8566 78.2262 15.7942 78.3947C16.404 78.4362 17.0168 78.4246 17.6125 78.3617C18.647 78.2518 19.6968 78.2518 20.7307 78.3611C21.0951 78.4001 21.4638 78.4191 21.8312 78.4191C22.0674 78.4191 22.3036 78.4111 22.5368 78.3953C25.5025 78.2256 28.6781 76.5996 31.4772 73.8158C32.8944 72.4065 34.1505 70.7732 35.1894 69.016C38.9442 68.4227 42.7681 67.1923 46.5865 65.3472C47.6454 73.601 54.7029 79.9999 63.224 79.9999C72.4745 79.9999 79.9995 72.4602 79.9995 63.1926C80.0001 57.8691 77.513 52.9216 73.296 49.7509ZM11.3606 37.8722L10.2058 34.113C10.1967 34.0844 10.1912 34.0654 10.2345 34.0319C10.3285 33.9604 10.041 33.8286 14.2891 36.5239V36.5245C17.1883 38.3635 17.8389 41.6204 17.9707 45.4912L15.9596 44.1649C13.7727 42.6415 12.1394 40.407 11.3606 37.8722ZM35.1155 63.5552C33.0873 69.7899 27.6015 75.7561 22.3909 76.0546C21.9173 76.0869 21.4418 76.0784 20.9773 76.0295C20.3786 75.9655 19.7755 75.9343 19.1725 75.9343C18.5689 75.9343 17.9658 75.9661 17.3665 76.0295C16.9038 76.0784 16.4284 76.0869 15.9407 76.054C13.5585 75.9172 10.9328 74.5433 8.54568 72.1849C6.16043 69.8271 4.272 66.7626 3.22891 63.5564C1.89285 59.4365 2.07168 55.6426 3.74283 52.5896C5.56472 49.3029 8.84659 47.3229 12.7406 47.1562C14.5424 47.0903 16.3222 47.4907 18.0403 48.3446L18.5286 48.6663C18.9851 48.9672 19.6162 48.9232 20.0246 48.4868C21.8288 47.5353 23.7056 47.0885 25.5965 47.1562C32.8816 47.4675 38.1557 54.1838 35.1155 63.5552ZM63.2246 38.377C63.2246 38.1053 63.5225 37.9418 63.752 38.0925C65.1588 39.0203 66.9563 40.02 68.5396 42.5164C68.5744 42.8405 68.7416 43.1456 69.0205 43.3464C69.3635 43.9971 69.6492 44.6782 69.8659 45.3844L71.0213 49.1429C71.0298 49.1716 71.0359 49.1912 70.992 49.2241C70.9346 49.2681 70.8998 49.2461 70.8742 49.2302L66.9374 46.7321C62.9311 44.1906 63.2246 40.4949 63.2246 38.377ZM63.2246 77.6549C55.2657 77.6549 48.7898 71.1669 48.7898 63.1926C48.7898 57.3625 52.1883 52.2368 57.4031 49.9529C57.4922 50.7958 57.765 51.6143 58.2143 52.3589C58.434 52.7233 58.8209 52.9247 59.2171 52.9247C59.4234 52.9247 59.6321 52.8698 59.8213 52.7556C60.3743 52.4205 60.5519 51.6991 60.2174 51.1449C59.7389 50.3521 59.5943 49.4152 59.8109 48.507C60.0948 47.3168 60.9547 46.3964 62.054 46.0094V49.2797C62.054 49.9211 62.5484 50.4814 63.1886 50.5004C63.8515 50.5205 64.3953 49.9883 64.3953 49.3285V47.7562C65.1277 48.3885 65.6331 48.6809 66.7323 49.3785C66.7238 49.9993 66.5535 50.6127 66.2318 51.1449C65.8974 51.6991 66.0744 52.4205 66.628 52.7556C66.8172 52.8698 67.0259 52.9247 67.2322 52.9247C67.6283 52.9247 68.0147 52.7233 68.235 52.3589C68.5371 51.859 68.7599 51.3164 68.9003 50.7537L69.6217 51.2114C70.027 51.469 70.4799 51.5959 70.9309 51.5959C71.1848 51.5959 71.4381 51.5551 71.6829 51.4745C75.4372 54.196 77.6594 58.5259 77.6594 63.1926C77.6594 71.1669 71.1842 77.6549 63.2246 77.6549Z" fill="#1A1A1A"/>
<path d="M22.1554 33.0297C27.1029 33.0297 31.1282 28.9971 31.1282 24.0398C31.1282 19.0825 27.1029 15.0493 22.1554 15.0493C17.2073 15.0493 13.1826 19.0825 13.1826 24.0398C13.1826 28.9971 17.2073 33.0297 22.1554 33.0297ZM22.1554 17.3949C25.812 17.3949 28.7875 20.3759 28.7875 24.0398C28.7875 27.7037 25.812 30.6847 22.1554 30.6847C18.4982 30.6847 15.5233 27.7037 15.5233 24.0398C15.5233 20.3759 18.4982 17.3949 22.1554 17.3949Z" fill="#1A1A1A"/>
<path d="M19.8033 23.3057C20.0316 23.5346 20.3313 23.6487 20.631 23.6487C20.93 23.6487 21.2297 23.5346 21.4586 23.3057L21.801 22.9621L22.144 23.3057C22.3723 23.5346 22.672 23.6487 22.9717 23.6487C23.2713 23.6487 23.5704 23.5346 23.7993 23.3057C24.2564 22.8474 24.2564 22.1052 23.7993 21.6474L23.4563 21.3038L23.7993 20.9601C24.2564 20.5024 24.2564 19.7596 23.7993 19.3018C23.3421 18.8441 22.6012 18.8441 22.144 19.3018L21.801 19.6454L21.4586 19.3018C21.0014 18.8441 20.2605 18.8441 19.8033 19.3018C19.3462 19.7596 19.3462 20.5024 19.8033 20.9601L20.1457 21.3038L19.8033 21.6474C19.3462 22.1052 19.3462 22.8474 19.8033 23.3057Z" fill="#1A1A1A"/>
<path d="M43.4902 13.1666C45.4445 11.208 45.9633 8.48523 45.082 6.0011L45.4262 5.85828C46.0231 5.61047 46.3069 4.92505 46.0591 4.32629C45.812 3.72815 45.1271 3.44434 44.5302 3.69214L43.9644 3.92651C43.9528 3.91126 43.9424 3.896 43.9308 3.88074L44.3654 3.44495C44.8226 2.98718 44.8226 2.24438 44.3654 1.78662C43.9083 1.32886 43.1673 1.32886 42.7101 1.78662L42.2744 2.22363C42.2591 2.21204 42.2444 2.20105 42.2292 2.19006L42.4642 1.62183C42.7114 1.02368 42.4282 0.337647 41.8306 0.089844C41.2343 -0.157959 40.5489 0.125855 40.3017 0.723999L40.1601 1.06763C37.6601 0.171631 34.9617 0.705689 33.0074 2.6637C30.2748 5.40173 27.3897 12.6234 30.4695 15.7094C33.5677 18.8142 40.79 15.8723 43.4902 13.1666ZM31.8636 9.50757C32.4282 7.51782 33.553 5.43408 34.6627 4.32263C36.6475 2.3335 39.5345 2.68079 41.5035 4.65405C43.5817 6.73596 43.7209 9.61865 41.8349 11.5083C40.7253 12.6204 38.6452 13.7471 36.6597 14.3129C34.576 14.9061 32.8804 14.8091 32.1242 14.051C31.3686 13.2942 31.2709 11.5956 31.8636 9.50757Z" fill="#1A1A1A"/>
<path d="M38.1866 9.63568C38.6438 9.17792 38.6438 8.43512 38.1866 7.97736C37.7295 7.51959 36.9885 7.51959 36.5313 7.97736C36.0742 8.43512 36.0742 9.17792 36.5313 9.63568C36.9885 10.0934 37.7295 10.0934 38.1866 9.63568Z" fill="#1A1A1A"/>
<path d="M34.8761 12.9523C35.3333 12.4946 35.3333 11.7518 34.8761 11.294C34.4189 10.8362 33.678 10.8362 33.2208 11.294C32.7643 11.7518 32.7643 12.4946 33.2208 12.9523C33.678 13.4107 34.4189 13.4107 34.8761 12.9523Z" fill="#1A1A1A"/>
<path d="M34.8761 9.63568C35.3333 9.17792 35.3333 8.43512 34.8761 7.97736C34.4189 7.51959 33.678 7.51959 33.2208 7.97736C32.7643 8.43512 32.7643 9.17792 33.2208 9.63568C33.678 10.0934 34.4189 10.0934 34.8761 9.63568Z" fill="#1A1A1A"/>
<path d="M38.1866 12.9523C38.6438 12.4946 38.6438 11.7518 38.1866 11.294C37.7295 10.8362 36.9885 10.8362 36.5313 11.294C36.0742 11.7518 36.0742 12.4946 36.5313 12.9523C36.9885 13.4107 37.7295 13.4107 38.1866 12.9523Z" fill="#1A1A1A"/>
<path d="M41.4966 9.63568C41.9537 9.17792 41.9537 8.43512 41.4966 7.97736C41.04 7.51959 40.2984 7.51959 39.8419 7.97736C39.3847 8.43512 39.3847 9.17792 39.8419 9.63568C40.2984 10.0934 41.04 10.0934 41.4966 9.63568Z" fill="#1A1A1A"/>
<path d="M38.1866 6.31903C38.6438 5.86127 38.6438 5.11847 38.1866 4.66071C37.7295 4.20294 36.9885 4.20294 36.5313 4.66071C36.0742 5.11908 36.0742 5.86127 36.5313 6.31903C36.9885 6.77679 37.7295 6.77679 38.1866 6.31903Z" fill="#1A1A1A"/>
<path d="M43.4641 16.3995C43.0064 16.6742 42.6188 17.049 42.3295 17.4866C41.0465 16.8469 39.4071 17.0056 38.2652 18.15C37.1397 19.2773 36.9596 20.9167 37.6139 22.2229C36.9016 22.6892 36.3712 23.407 36.1436 24.259C35.9184 25.1038 36.0142 25.979 36.4048 26.7523C35.5924 27.2827 35.0315 28.1311 34.8625 29.0924C34.5414 30.9137 35.6999 32.6819 37.4986 33.1183C38.9945 33.4808 40.4679 32.8339 41.2638 31.626C42.288 32.1436 43.5594 32.1564 44.6421 31.5057C45.1029 31.2286 45.4923 30.8502 45.7829 30.4071C47.0603 31.0486 48.6997 30.9064 49.8484 29.7559C50.9672 28.6346 51.154 26.9977 50.5003 25.6873C51.2504 25.1984 51.7942 24.433 52.003 23.5187C52.1751 22.7649 52.0817 21.9989 51.7844 21.3257C52.3716 21.0999 52.6786 20.4468 52.4705 19.8474C52.2581 19.2352 51.591 18.913 50.98 19.1248L50.2903 19.3652L50.7523 18.9026C51.2095 18.4448 51.2095 17.702 50.7523 17.2443C50.2952 16.7865 49.5542 16.7865 49.0971 17.2443L48.635 17.7069L48.8749 17.016C49.0873 16.4044 48.765 15.7361 48.1541 15.5231C47.559 15.3162 46.9102 15.6189 46.6819 16.2018C45.6815 15.7617 44.4859 15.7867 43.4641 16.3995ZM46.4005 19.726C46.3773 19.812 46.3657 19.8987 46.3621 19.9841L45.9367 20.4108C44.8722 21.4771 46.4262 23.2367 47.6841 21.9763C48.09 21.568 48.5282 21.4832 48.9555 21.6272C50.0395 21.9922 50.0065 23.6108 48.8419 23.8818C47.6884 24.1498 47.3026 25.5957 48.1663 26.4093C48.3958 26.6254 48.5307 26.936 48.5355 27.2601C48.5508 28.2996 47.2508 28.8641 46.5055 28.0688C45.7023 27.2095 44.2533 27.5983 43.9878 28.7463C43.7809 29.6374 42.6475 29.9896 41.9883 29.2847C41.1833 28.4235 39.7379 28.8141 39.4694 29.967C39.3339 30.5487 38.7266 31.0034 38.0491 30.8386C37.064 30.6 36.8089 29.2609 37.7018 28.703C38.1974 28.3936 38.621 28.5791 38.7949 28.6053C40.2372 28.9166 41.649 28.2623 42.4033 27.0508C42.5077 27.1069 42.6164 27.1582 42.7281 27.2046C45.192 28.2202 47.8599 26.1066 46.5403 24.7839C46.0832 24.3262 45.3422 24.3262 44.885 24.7839C44.1691 25.5011 42.9887 25.0079 42.8941 24.093C42.8129 22.2125 40.4948 22.5183 40.5467 23.9923C40.5583 24.9756 40.781 25.5927 40.1658 26.0968C39.8814 26.33 39.503 26.3885 39.2521 26.3043C38.9756 26.3043 38.1706 25.7428 38.4049 24.8651C38.5166 24.4458 38.8493 24.1241 39.2722 24.0247C40.4209 23.7555 40.8122 22.3059 39.9491 21.499C39.7178 21.283 39.5817 20.9723 39.5762 20.647C39.5585 19.6033 40.8756 19.0436 41.605 19.8218C42.4082 20.6793 43.8523 20.2924 44.1209 19.1467C44.1923 18.8446 44.3907 18.5773 44.6653 18.4125C45.5467 17.8839 46.6758 18.6957 46.4005 19.726Z" fill="#1A1A1A"/>
<path d="M57.1382 55.3906C57.1382 56.0382 56.6133 56.5625 55.9663 56.5625C55.3187 56.5625 54.7944 56.0382 54.7944 55.3906C54.7944 54.7437 55.3187 54.2188 55.9663 54.2188C56.6133 54.2188 57.1382 54.7437 57.1382 55.3906Z" fill="#1A1A1A"/>
<path d="M60.2632 59.7661C60.2632 60.4131 59.7383 60.938 59.0913 60.938C58.4443 60.938 57.9194 60.4131 57.9194 59.7661C57.9194 59.1185 58.4443 58.5942 59.0913 58.5942C59.7383 58.5942 60.2632 59.1185 60.2632 59.7661Z" fill="#1A1A1A"/>
<path d="M54.0127 63.2036C54.0127 63.8506 53.4884 64.3755 52.8408 64.3755C52.1938 64.3755 51.6689 63.8506 51.6689 63.2036C51.6689 62.5566 52.1938 62.0317 52.8408 62.0317C53.4884 62.0317 54.0127 62.5566 54.0127 63.2036Z" fill="#1A1A1A"/>
</g>
<defs>
<clipPath id="clip0_1906_12661">
<rect width="80" height="80" fill="white"/>
</clipPath>
</defs>
</svg>
