<svg width="80" height="80" viewBox="0 0 80 80" fill="none" xmlns="http://www.w3.org/2000/svg">
<g clip-path="url(#clip0_516_4195)">
<path d="M53.2586 62.3118C48.3825 62.1919 45.2856 59.8368 43.5027 57.6885C41.9061 55.7652 41.2048 53.1196 40.393 50.0558C39.2638 45.7939 37.8582 40.4894 33.4502 35.6056C29.0801 30.7639 23.6761 28.6553 18.908 26.795C11.8688 24.0492 9.01238 22.6854 9.01238 16.433C9.01238 15.7493 9.01482 14.2675 10.2746 12.5613C4.68499 16.2581 1.10589 20.9174 1.19195 26.0385C1.41595 39.3647 15.2044 36.91 23.4307 46.0245C32.1301 55.663 25.3033 65.0387 42.9272 71.8941C52.1862 75.4955 67.6977 70.7315 75.4748 51.4892C75.2831 51.7326 63.5345 62.5643 53.2586 62.3118Z" fill="#EA3942"/>
<path d="M78.8092 37.5354C78.8092 53.6534 65.2728 70.2379 47.8027 66.7196C29.2175 62.9764 36.4972 51.2108 27.7985 41.5723C19.5715 32.4578 4.89746 35.9393 4.89746 21.5876C4.89746 8.58425 27.3621 5.11189 47.8027 8.35186C64.7168 11.0329 78.8092 21.4175 78.8092 37.5354Z" fill="#F3E8D7"/>
<path d="M67.5325 16.2C70.5208 20.3609 72.2609 25.3132 72.2609 30.9743C72.2609 47.0916 58.7245 63.6761 41.2538 60.1579C38.6158 59.6271 36.4998 58.9336 34.7847 58.1086C36.5242 61.9405 39.7126 65.0906 47.8029 66.7198C65.2729 70.238 78.8093 53.6535 78.8093 37.5356C78.8093 28.511 74.3904 21.2843 67.5325 16.2Z" fill="#E5D6C1"/>
<path d="M52.5067 61.4286C49.8963 61.5418 47.2827 61.1045 44.8834 60.0306C43.2593 59.3035 41.723 58.2798 40.6824 56.8335C39.5508 55.2612 39.0863 53.3189 38.6017 51.4421C37.5708 47.4481 36.3074 43.4327 33.9526 40.0484C30.4755 35.0508 24.9188 31.8769 19.2108 29.775C17.2009 29.035 15.1148 28.3886 13.374 27.1386C11.6333 25.8892 10.2643 23.8717 10.4389 21.7332C10.6635 18.9855 13.2398 17.0597 15.752 15.9351C22.6727 12.8376 30.6806 12.3857 38.1494 12.9495C45.7642 13.5238 53.9014 14.9212 60.6629 18.6326C67.3401 22.2976 72.2955 28.6277 72.962 36.3326C73.6176 43.9121 70.1013 52.0915 64.2279 56.9209C60.943 59.6221 56.7291 61.2458 52.5067 61.4286Z" fill="#FC4E51"/>
<path d="M72.9619 36.3327C72.3723 29.5176 68.4258 23.7795 62.9009 20.0081C64.7856 22.853 66.0094 26.1174 66.3176 29.6754C66.9731 37.2549 63.4569 45.4343 57.5835 50.2637C54.298 52.9649 50.0841 54.5885 45.8617 54.7714C43.6113 54.8686 41.3591 54.5561 39.2437 53.7801C39.5867 54.8668 40.02 55.9131 40.6823 56.8335C41.7229 58.2798 43.2592 59.3036 44.8833 60.0307C47.282 61.1046 49.8955 61.5418 52.5066 61.4287C56.7284 61.2458 60.9429 59.6222 64.2278 56.921C70.1018 52.0916 73.6174 43.9122 72.9619 36.3327Z" fill="#EA3942"/>
<path d="M37.5525 23.4975C37.5525 26.2017 35.3644 28.3941 32.6654 28.3941C29.9664 28.3941 27.7783 26.2017 27.7783 23.4975C27.7783 20.7932 29.9664 18.6008 32.6654 18.6008C35.3644 18.6008 37.5525 20.7932 37.5525 23.4975Z" fill="#F3E8D7"/>
<path d="M70.4332 17.0077C64.8027 12.0683 56.8321 8.57573 47.9882 7.17406C40.1464 5.93079 32.0439 5.68923 25.1732 6.49464C17.5902 7.38321 11.66 9.49794 8.02416 12.6101C7.8319 12.7746 7.64696 12.9422 7.46752 13.1122C2.50597 16.9906 -0.0758192 21.4659 0.00169544 26.0586C0.0688341 30.0551 1.31395 33.1299 3.80907 35.4587C5.99535 37.4994 8.84813 38.7555 11.8688 40.085C15.6182 41.7356 19.4951 43.4418 22.5481 46.8249C25.6725 50.2868 26.6905 53.758 27.6744 57.1154C28.5045 59.9444 29.362 62.8706 31.4537 65.5889C33.7914 68.6277 37.3003 70.9846 42.4962 73.0058C44.5268 73.7959 46.7693 74.1842 49.099 74.1842C52.7831 74.1842 56.6857 73.2119 60.3081 71.3155C65.1763 68.7659 71.9359 63.3513 76.5361 52.0377C78.7596 47.5422 79.9999 42.5275 79.9999 37.5355C79.9999 29.597 76.6918 22.4988 70.4332 17.0077ZM59.2046 69.2013C53.8909 71.9845 47.9668 72.5752 43.358 70.7822C32.9802 66.7454 31.5801 61.971 29.959 56.4427C28.9482 52.9966 27.8032 49.0913 24.3132 45.2251C20.9184 41.4635 16.6191 39.5707 12.8258 37.9012C7.0598 35.3627 2.50536 33.358 2.38146 26.0182C2.34972 24.1267 2.88622 22.3875 3.73216 20.8268C3.71691 21.0782 3.70653 21.3307 3.70653 21.587C3.70653 25.8855 4.97606 29.1225 7.58715 31.4836C9.87535 33.5525 12.8642 34.7187 16.0283 35.9528C19.8931 37.4603 23.889 39.0191 26.9151 42.3722C29.9529 45.7382 30.9288 49.4197 31.8718 52.9801C32.7257 56.2011 33.5314 59.2435 35.7298 61.8915C38.1871 64.852 41.9487 66.7576 47.5676 67.889C49.2015 68.218 50.8348 68.3806 52.4535 68.3806C57.1184 68.3806 61.6594 67.0291 65.7219 64.4197C63.4203 66.6653 61.1486 68.1831 59.2046 69.2013ZM74.4768 50.8397C74.4365 50.9027 74.4005 50.9699 74.3712 51.0415C74.3578 51.0757 74.3431 51.1081 74.3297 51.1418C72.4767 54.8349 69.9053 58.1409 66.7803 60.7051C63.6467 63.2767 58.8378 66.0109 52.5585 66.0109C51.1272 66.0109 49.6184 65.8684 48.037 65.5504C37.0818 63.344 35.7982 58.5005 34.1735 52.3679C33.2042 48.7115 32.1062 44.567 28.6815 40.7724C25.2776 37.001 20.8226 35.263 16.892 33.7298C10.8556 31.3748 6.08751 29.5151 6.08751 21.587C6.08751 18.8118 7.25939 16.4017 9.57079 14.4239C14.1216 10.5284 23.0876 8.40388 33.712 8.40388C38.1261 8.40388 42.8276 8.77081 47.6164 9.52974C56.0216 10.8623 63.568 14.1555 68.8646 18.802C74.5922 23.8271 77.6189 30.3052 77.6189 37.5355C77.6189 42.1135 76.494 46.7093 74.4768 50.8397Z" fill="#1A1A1A"/>
<path d="M73.0608 38.8467C72.4035 38.7928 71.8297 39.279 71.7748 39.9352C71.2853 45.7571 68.3831 51.6084 64.1369 55.4251C62.5798 54.1879 61.9683 52.1924 61.0289 49.1219C60.2471 46.5638 59.2736 43.38 57.3778 39.49C55.5694 35.7779 52.2088 32.6297 48.7304 30.1499C51.3598 28.6137 57.7147 25.7223 67.733 26.173C69.6685 28.7176 70.9807 31.6017 71.5374 34.6551C71.6423 35.2306 72.1428 35.6336 72.7068 35.6336C72.7782 35.6336 72.8502 35.6269 72.9223 35.614C73.5692 35.4954 73.9977 34.8741 73.8793 34.2258C73.2238 30.6318 71.6417 27.2536 69.3059 24.3157C69.2894 24.2925 69.2711 24.2698 69.2522 24.2472C67.1453 21.6163 64.4323 19.342 61.2346 17.5869C55.3386 14.35 48.0315 12.4988 38.2384 11.7601C28.9818 11.0611 21.4678 12.0713 15.2666 14.8465C12.3736 16.1412 10.4332 17.9226 9.63857 19.9701C9.63246 19.986 9.62636 20.0019 9.62026 20.0184C9.4225 20.5419 9.29738 21.0819 9.25221 21.6365C9.06117 23.9732 10.3747 26.4537 12.6806 28.1085C13.9476 29.0185 15.3618 29.6166 16.4525 30.0355C17.0659 30.2722 17.7544 29.9646 17.99 29.3493C18.2256 28.7347 17.9192 28.0443 17.3052 27.8089C16.2883 27.4175 15.1079 26.9172 14.0673 26.1693C12.7904 25.2526 11.4782 23.6314 11.6253 21.831C11.632 21.7521 11.6424 21.6677 11.6564 21.5797C17.2423 21.4726 23.5875 22.5795 26.596 23.1831C26.5905 23.2871 26.588 23.3923 26.588 23.4975C26.588 26.8548 29.3145 29.5866 32.6653 29.5866C34.8278 29.5866 36.729 28.4485 37.8063 26.7393C41.7724 28.5024 51.8255 33.5323 55.2385 40.5364C57.0519 44.2582 57.9949 47.3423 58.7523 49.8202C59.6917 52.8914 60.4186 55.2679 62.2265 56.9337C59.3584 58.8999 55.8764 60.0887 52.4547 60.2373C49.9193 60.3474 47.5353 59.9114 45.3692 58.9421C43.7029 58.196 42.4511 57.2524 41.6478 56.1363C40.6994 54.8178 40.2727 53.1587 39.8211 51.4023L39.7545 51.143C38.7224 47.1453 37.4242 42.952 34.9297 39.3665C32.2289 35.4856 28.0565 32.2768 22.5274 29.8294C21.9262 29.5628 21.223 29.8355 20.9575 30.4385C20.692 31.0409 20.9636 31.7448 21.5654 32.0114C26.6893 34.2796 30.5285 37.2132 32.9766 40.7308C35.2562 44.0069 36.4733 47.9587 37.4492 51.7405L37.5158 51.998C38.0022 53.8907 38.5058 55.8482 39.7173 57.5312C40.7689 58.9928 42.3436 60.2 44.3981 61.1198C46.6533 62.1294 49.1021 62.6395 51.6893 62.6395C51.9768 62.6395 52.2667 62.6327 52.5579 62.6205C57.0452 62.4254 61.4422 60.7394 64.9456 57.8731C64.9486 57.8706 64.9517 57.8682 64.9541 57.8657C64.9639 57.8578 64.9736 57.8504 64.9828 57.8431C70.1464 53.5978 73.5717 46.9784 74.1466 40.1352C74.2022 39.479 73.7157 38.9017 73.0608 38.8467ZM36.3512 23.7678C36.2542 24.4521 36.2279 24.8826 35.6579 25.6684C34.9852 26.5962 33.8952 27.2016 32.6653 27.2016C30.6402 27.2016 28.991 25.5614 28.9696 23.5372C29.0465 22.2799 29.5012 21.5845 29.5012 21.5845C30.1494 20.5119 31.325 19.7933 32.6653 19.7933C34.7039 19.7933 36.3622 21.4555 36.3622 23.4975C36.3622 23.5886 36.3573 23.6785 36.3512 23.7678ZM38.659 24.5016C38.7133 24.1744 38.7426 23.8393 38.7426 23.4975C38.7426 20.1395 36.0161 17.4077 32.6653 17.4077C30.2544 17.4077 28.167 18.8216 27.1856 20.8648C24.3621 20.2905 18.5192 19.2509 12.9522 19.1891C13.6437 18.4712 14.6825 17.7202 16.2377 17.0242C22.069 14.4148 29.207 13.4712 38.0596 14.1384C47.5023 14.8508 54.5031 16.6115 60.0902 19.679C62.1593 20.8146 64.0032 22.1863 65.584 23.739C54.898 23.7427 48.5967 27.3074 46.5569 28.6889C43.4209 26.7014 40.4345 25.2795 38.659 24.5016Z" fill="#1A1A1A"/>
</g>
<defs>
<clipPath id="clip0_516_4195">
<rect width="80" height="80" fill="white"/>
</clipPath>
</defs>
</svg>
