<svg width="80" height="80" viewBox="0 0 80 80" fill="none" xmlns="http://www.w3.org/2000/svg">
<path d="M46.25 71.25H6.25C6.25 71.25 3.75 51.25 3.75 40C3.75 28.75 6.25 8.75 6.25 8.75H46.25C46.25 8.75 48.75 28.75 48.75 40C48.75 51.25 46.25 71.25 46.25 71.25Z" fill="#13DA63"/>
<path d="M26.25 28.75C33.1536 28.75 38.75 25.9518 38.75 22.5C38.75 19.0482 33.1536 16.25 26.25 16.25C19.3464 16.25 13.75 19.0482 13.75 22.5C13.75 25.9518 19.3464 28.75 26.25 28.75Z" fill="#A82A27"/>
<path d="M46.25 8.75H6.25L3.75 3.75H48.75L46.25 8.75Z" fill="#0AAD4B"/>
<path d="M6.25 71.25H46.25L48.75 76.25H3.75L6.25 71.25Z" fill="#0AAD4B"/>
<path d="M27.898 41.25C32.7305 41.25 36.648 42.1078 36.648 46.25C36.648 50.3922 32.7305 53.75 27.898 53.75C23.0655 53.75 19.1479 50.3922 19.1479 46.25C19.1479 42.1078 23.0655 41.25 27.898 41.25Z" fill="#E09F2C"/>
<path d="M22.6221 41.8306C26.0392 45.2476 28.2028 48.6243 25.2739 51.5532C22.345 54.4821 17.2004 54.0865 13.7832 50.6693C10.366 47.2521 9.97073 42.1078 12.8995 39.1789C15.8282 36.25 19.2051 38.4134 22.6221 41.8306Z" fill="#F7B030"/>
<path d="M31.25 28.75H66.25V76.25H31.25V28.75Z" fill="#F7B030"/>
<path d="M66.25 28.75H76.25V76.25H66.25V28.75Z" fill="#E09F2C"/>
<path d="M48.75 63.75C53.5825 63.75 57.5 59.8325 57.5 55C57.5 50.1675 53.5825 46.25 48.75 46.25C43.9175 46.25 40 50.1675 40 55C40 59.8325 43.9175 63.75 48.75 63.75Z" fill="#D49073"/>
<path d="M38.75 35H58.75V40H38.75V35Z" fill="#AD6643"/>
<path d="M32.5 21.25H20C19.6685 21.25 19.3505 21.3817 19.1161 21.6161C18.8817 21.8505 18.75 22.1685 18.75 22.5C18.75 22.8315 18.8817 23.1495 19.1161 23.3839C19.3505 23.6183 19.6685 23.75 20 23.75H32.5C32.8315 23.75 33.1495 23.6183 33.3839 23.3839C33.6183 23.1495 33.75 22.8315 33.75 22.5C33.75 22.1685 33.6183 21.8505 33.3839 21.6161C33.1495 21.3817 32.8315 21.25 32.5 21.25Z" fill="#1A1A1A"/>
<path d="M76.25 27.5H49.4031C48.7522 19.1364 47.7612 10.8164 47.5367 8.97172L49.868 4.30906C49.9633 4.11849 50.0083 3.90672 49.9987 3.69386C49.9891 3.48101 49.9253 3.27413 49.8133 3.09288C49.7013 2.91162 49.5448 2.76201 49.3587 2.65824C49.1726 2.55448 48.9631 2.50001 48.75 2.5H3.75C3.53693 2.50001 3.3274 2.55448 3.1413 2.65824C2.9552 2.76201 2.79872 2.91162 2.6867 3.09288C2.57469 3.27413 2.51087 3.48101 2.5013 3.69386C2.49173 3.90672 2.53673 4.11849 2.63203 4.30906L4.96344 8.97187C4.62172 11.7827 2.5 29.6514 2.5 40C2.5 50.3486 4.62172 68.2173 4.96344 71.0281L2.63203 75.6909C2.53673 75.8815 2.49173 76.0933 2.5013 76.3061C2.51087 76.519 2.57469 76.7259 2.6867 76.9071C2.79872 77.0884 2.9552 77.238 3.1413 77.3418C3.3274 77.4455 3.53693 77.5 3.75 77.5H76.25C76.5815 77.5 76.8995 77.3683 77.1339 77.1339C77.3683 76.8995 77.5 76.5815 77.5 76.25V28.75C77.5 28.4185 77.3683 28.1005 77.1339 27.8661C76.8995 27.6317 76.5815 27.5 76.25 27.5ZM46.7275 5L45.4775 7.5H7.0225L5.7725 5H46.7275ZM30 75H5.7725L7.0225 72.5H30V75ZM30 52.2487C28.7705 52.5481 27.4911 52.5804 26.2481 52.3434C29.5659 48.9141 27.2108 45.0711 25.1011 42.6342C26.0303 42.5387 26.9639 42.4939 27.898 42.5C28.6733 42.5 29.3691 42.5228 30.0002 42.5692L30 52.2487ZM24.3906 50.6694C23.2363 51.8237 21.6094 52.3836 19.8083 52.2448C17.9352 52.1008 16.1098 51.2273 14.6677 49.7855C13.2255 48.3436 12.3525 46.5181 12.2084 44.6448C12.0698 42.8444 12.6294 41.2169 13.7839 40.0625C14.4602 39.3862 15.1477 39.0566 15.9217 39.0566C16.3412 39.064 16.7561 39.1457 17.147 39.298C18.4152 39.7641 19.8742 40.8495 21.7388 42.7142C26.3992 47.375 25.7672 49.2922 24.3906 50.6694ZM30 40.0641C29.3566 40.0217 28.6611 40 27.8978 40C25.8911 40 24.3066 40.1453 23.0016 40.4531C21.0977 38.6202 19.4995 37.5 18.0091 36.9531C15.7848 36.1355 13.7122 36.6 12.0155 38.2969C10.3369 39.9738 9.52 42.2969 9.71531 44.837C9.90516 47.3047 11.0359 49.6898 12.8995 51.5533C14.7631 53.4167 17.1483 54.5477 19.6158 54.7375C19.8628 54.7564 20.1076 54.7658 20.3502 54.7658C21.4594 54.7717 22.5591 54.5609 23.5875 54.1452C24.9542 54.7105 26.4188 55.001 27.8978 55C28.6031 54.9999 29.3068 54.9345 30 54.8047V70H7.35781C6.8425 65.6758 5 49.5481 5 40C5 30.4519 6.8425 14.3245 7.35781 10H45.1423C45.4663 12.7139 46.3127 20.0711 46.8955 27.5H36.6166C38.8078 26.1519 40 24.4034 40 22.5C40 20.3323 38.4544 18.3658 35.6478 16.9627C33.1167 15.6969 29.7792 15 26.25 15C22.7208 15 19.3833 15.6969 16.8522 16.9627C14.0456 18.3658 12.5 20.3323 12.5 22.5C12.5 24.6677 14.0456 26.6342 16.8522 28.0373C19.3833 29.3031 22.7208 30 26.25 30C27.505 30.0012 28.7584 29.9102 30 29.7277V40.0641ZM26.25 27.5C19.6202 27.5 15 24.865 15 22.5C15 20.135 19.6202 17.5 26.25 17.5C32.8798 17.5 37.5 20.135 37.5 22.5C37.5 24.865 32.8798 27.5 26.25 27.5ZM65 75H32.5V30H65V75ZM75 75H67.5V30H75V75Z" fill="#1A1A1A"/>
<path d="M48.75 45C46.7722 45 44.8388 45.5865 43.1943 46.6853C41.5498 47.7841 40.2681 49.3459 39.5112 51.1732C38.7543 53.0004 38.5563 55.0111 38.9422 56.9509C39.328 58.8907 40.2804 60.6725 41.6789 62.0711C43.0775 63.4696 44.8593 64.422 46.7991 64.8079C48.7389 65.1937 50.7496 64.9957 52.5768 64.2388C54.4041 63.4819 55.9659 62.2002 57.0647 60.5557C58.1635 58.9112 58.75 56.9778 58.75 55C58.747 52.3487 57.6925 49.8069 55.8178 47.9322C53.9431 46.0575 51.4013 45.003 48.75 45ZM48.75 62.5C48.1452 62.4998 47.5427 62.4264 46.9556 62.2813C47.1424 62.1535 47.2911 61.9774 47.3856 61.7717C47.4802 61.5661 47.5171 61.3386 47.4925 61.1136C47.4679 60.8886 47.3827 60.6746 47.246 60.4942C47.1092 60.3139 46.926 60.174 46.716 60.0896C46.506 60.0052 46.277 59.9795 46.0535 60.015C45.83 60.0506 45.6203 60.1462 45.4468 60.2916C45.2734 60.437 45.1427 60.6268 45.0687 60.8407C44.9947 61.0546 44.9801 61.2846 45.0266 61.5061C44.1105 60.9834 43.3152 60.273 42.6928 59.4215C42.0704 58.57 41.6349 57.5967 41.4148 56.5652C41.1947 55.5337 41.1951 54.4674 41.4158 53.436C41.6365 52.4047 42.0725 51.4316 42.6955 50.5805C42.5211 50.854 42.4593 51.1844 42.523 51.5025C42.5868 51.8205 42.7712 52.1016 43.0376 52.2868C43.3039 52.4719 43.6316 52.5468 43.952 52.4957C44.2723 52.4447 44.5605 52.2716 44.7561 52.0129C44.9517 51.7541 45.0396 51.4296 45.0013 51.1075C44.9631 50.7853 44.8016 50.4905 44.5508 50.2848C44.3 50.079 43.9793 49.9783 43.6559 50.0037C43.3325 50.0291 43.0315 50.1787 42.8159 50.4211C43.5155 49.5124 44.4143 48.7765 45.4431 48.2701C46.4719 47.7636 47.6033 47.5002 48.75 47.5C48.7507 47.7953 48.8559 48.0808 49.047 48.3059C49.2381 48.531 49.5027 48.6812 49.794 48.7299C50.0852 48.7785 50.3843 48.7225 50.6382 48.5718C50.8921 48.421 51.0844 48.1853 51.1811 47.9063C52.8611 48.4813 54.2826 49.6338 55.1924 51.1586C56.1023 52.6835 56.4415 54.4818 56.1497 56.2333C55.858 57.9849 54.9541 59.576 53.599 60.7236C52.244 61.8712 50.5257 62.5007 48.75 62.5Z" fill="#1A1A1A"/>
<path d="M45 57.5C45.6904 57.5 46.25 56.9404 46.25 56.25C46.25 55.5596 45.6904 55 45 55C44.3096 55 43.75 55.5596 43.75 56.25C43.75 56.9404 44.3096 57.5 45 57.5Z" fill="#1A1A1A"/>
<path d="M51.25 60C51.9404 60 52.5 59.4404 52.5 58.75C52.5 58.0596 51.9404 57.5 51.25 57.5C50.5596 57.5 50 58.0596 50 58.75C50 59.4404 50.5596 60 51.25 60Z" fill="#1A1A1A"/>
<path d="M55 56.25C55.6904 56.25 56.25 55.6904 56.25 55C56.25 54.3096 55.6904 53.75 55 53.75C54.3096 53.75 53.75 54.3096 53.75 55C53.75 55.6904 54.3096 56.25 55 56.25Z" fill="#1A1A1A"/>
<path d="M50 53.75C50.6904 53.75 51.25 53.1904 51.25 52.5C51.25 51.8096 50.6904 51.25 50 51.25C49.3096 51.25 48.75 51.8096 48.75 52.5C48.75 53.1904 49.3096 53.75 50 53.75Z" fill="#1A1A1A"/>
<path d="M38.75 41.25H58.75C59.0815 41.25 59.3995 41.1183 59.6339 40.8839C59.8683 40.6495 60 40.3315 60 40V35C60 34.6685 59.8683 34.3505 59.6339 34.1161C59.3995 33.8817 59.0815 33.75 58.75 33.75H38.75C38.4185 33.75 38.1005 33.8817 37.8661 34.1161C37.6317 34.3505 37.5 34.6685 37.5 35V40C37.5 40.3315 37.6317 40.6495 37.8661 40.8839C38.1005 41.1183 38.4185 41.25 38.75 41.25ZM40 36.25H57.5V38.75H40V36.25Z" fill="#1A1A1A"/>
<path d="M53.75 68.75H43.75C43.4185 68.75 43.1005 68.8817 42.8661 69.1161C42.6317 69.3505 42.5 69.6685 42.5 70C42.5 70.3315 42.6317 70.6495 42.8661 70.8839C43.1005 71.1183 43.4185 71.25 43.75 71.25H53.75C54.0815 71.25 54.3995 71.1183 54.6339 70.8839C54.8683 70.6495 55 70.3315 55 70C55 69.6685 54.8683 69.3505 54.6339 69.1161C54.3995 68.8817 54.0815 68.75 53.75 68.75Z" fill="#1A1A1A"/>
<path d="M16.25 65H22.5C22.8315 65 23.1495 64.8683 23.3839 64.6339C23.6183 64.3995 23.75 64.0815 23.75 63.75C23.75 63.4185 23.6183 63.1005 23.3839 62.8661C23.1495 62.6317 22.8315 62.5 22.5 62.5H16.25C15.9185 62.5 15.6005 62.6317 15.3661 62.8661C15.1317 63.1005 15 63.4185 15 63.75C15 64.0815 15.1317 64.3995 15.3661 64.6339C15.6005 64.8683 15.9185 65 16.25 65Z" fill="#1A1A1A"/>
<path d="M11.25 65C11.9404 65 12.5 64.4404 12.5 63.75C12.5 63.0596 11.9404 62.5 11.25 62.5C10.5596 62.5 10 63.0596 10 63.75C10 64.4404 10.5596 65 11.25 65Z" fill="#1A1A1A"/>
</svg>
