<svg width="14" height="13" viewBox="0 0 14 13" fill="none" xmlns="http://www.w3.org/2000/svg">
<path d="M7.27563 10.921L10.4281 12.918C10.8311 13.173 11.3311 12.7935 11.2116 12.323L10.3011 8.74055C10.2754 8.64075 10.2784 8.53573 10.3097 8.43755C10.341 8.33937 10.3994 8.25202 10.4781 8.18554L13.3051 5.83305C13.6761 5.52404 13.4851 4.90755 13.0076 4.87654L9.31613 4.63655C9.21674 4.62949 9.1214 4.59436 9.0412 4.53523C8.961 4.4761 8.89925 4.39541 8.86313 4.30254L7.48613 0.835545C7.44864 0.737015 7.38208 0.652208 7.29528 0.59237C7.20849 0.532532 7.10555 0.500488 7.00013 0.500488C6.89471 0.500488 6.79177 0.532532 6.70498 0.59237C6.61818 0.652208 6.55162 0.737015 6.51413 0.835545L5.13713 4.30254C5.10109 4.3955 5.03937 4.4763 4.95916 4.53552C4.87896 4.59474 4.78358 4.62995 4.68413 4.63704L0.99263 4.87704C0.515631 4.90754 0.323631 5.52404 0.695131 5.83305L3.52213 8.18604C3.60079 8.25248 3.65911 8.33974 3.69042 8.43783C3.72173 8.53591 3.72475 8.64083 3.69913 8.74055L2.85513 12.063C2.71163 12.6275 3.31213 13.083 3.79513 12.7765L6.72513 10.921C6.80748 10.8687 6.90304 10.8409 7.00063 10.8409C7.09821 10.8409 7.19378 10.8687 7.27613 10.921H7.27563Z" fill="#CCCCCC"/>
</svg>
