<svg xmlns="http://www.w3.org/2000/svg" viewBox="0 0 500 500" data-sanitized-enable-background="new 0 0 500 500" id="Layer_1"><g fill="rgb(0,0,0)"><path fill="#ffffff" d="m265.7134 146.2294c1.3843 1.584 3.3242 2.3945 5.2749 2.3945 1.6338 0 3.2749-.5684 4.6021-1.7285 2.9116-2.543 3.2104-6.9648.667-9.877-2.3779-2.7217-4.8027-5.4131-7.207-7.998-2.6328-2.832-7.062-2.9922-9.8931-.3594s-2.9917 7.0615-.3589 9.8926c2.3056 2.4796 4.6323 5.0616 6.915 7.6758z"></path><path fill="#ffffff" d="m327.0874 210.7793c-8.6792-15.9766-18.2812-31.3154-28.5405-45.5898-1.8867-2.626-3.8096-5.2344-5.7144-7.7539-2.3306-3.084-6.7217-3.6934-9.8052-1.3623-3.084 2.332-3.6934 6.7217-1.3618 9.8057 1.8369 2.4297 3.6914 4.9463 5.5132 7.4805 9.918 13.8008 19.2065 28.6387 27.6069 44.1035 26.1943 48.2188 41.7012 98.3809 43.6636 141.2451 1.8809 41.0781-8.8491 70.0918-30.2124 81.6963s-51.5439 4.8154-84.98-19.1191c-34.8916-24.9756-68.5332-65.2861-94.7275-113.5059-26.1943-48.2188-41.7012-98.3799-43.6636-141.2451-1.8809-41.0771 8.8491-70.0908 30.2124-81.6963 23.3071-12.6602 57.665-3.1279 94.2661 26.1582 3.1978 2.5586 6.4355 5.291 9.624 8.1211 2.8906 2.5664 7.3154 2.3047 9.8823-.5869 2.5664-2.8916 2.3037-7.3154-.5874-9.8818-3.3667-2.9893-6.7896-5.877-10.1729-8.584-40.9658-32.7794-80.7102-42.8767-109.1748-27.7939-4.7695 1.8442-44.1697 18.3444-62.2114 66.0176-9.9014 26.1619-11.4473 56.3439-4.7285 90.2727-.6924.325-1.345.7622-1.9224 1.3269-11.0439 10.8027-19.1406 18.8457-24.0659 23.9072-19.0967 19.6272-15.9204 50.0662 10.792 101.0846l.0066.0223s11.501 28.0254 39.2551 58.2694c.2922.4799.6394.9357 1.0571 1.3483.6255.6179 1.2512 1.2094 1.877 1.7949.0168.0177.0327.0353.0496.053l.009.0032c11.5015 10.7441 23.071 16.0503 35.1089 16.0503 2.7803 0 5.5864-.2832 8.4214-.8467 7.2798-1.4473 19.2383-4.042 35.5435-7.7129.0361-.0082.0701-.021.106-.0295 24.707 23.9133 50.7556 38.9346 77.9692 44.8411 9.0322 1.9609 17.5859 2.7744 25.564 2.7744 36.019-.001 60.2712-16.5681 63.6672-19.0245 25.9998-14.4564 39.1462-47.9269 37.0208-94.3544-2.0572-44.9378-18.1617-97.2464-45.3472-147.2893zm-77.9351 244.2129c-21.4897-4.6641-42.7148-16.0469-63.0864-33.8311-25.1738-21.9766-49.2344-53.9141-71.5132-94.9248-22.2256-40.9131-35.9111-78.4004-40.6768-111.4229-3.8589-26.7402-1.9023-50.7256 5.8154-71.2891 4.4893-11.9612 10.5725-21.7141 17.0449-29.595-4.7705 14.897-6.7913 32.8176-5.856 53.2454 2.0576 44.9375 18.1621 97.2451 45.3472 147.2881 27.1851 50.042 62.3013 92.0225 98.8799 118.207 16.6909 11.9475 32.8752 19.9968 48.0168 24.0884-10.0741 1.1339-21.5137.9371-33.9718-1.766z"></path><path fill="#ffffff" d="m227.3818 126.7978c-25.7559-22.167-50.6016-34.2676-70.0703-34.0029-6.0093.0732-11.1836 1.333-15.8188 3.8506-16.355 8.8848-24.8125 34.1338-23.2036 69.2754 1.8447 40.2822 17.1704 89.6494 42.0479 135.4453 21.3711 39.3398 47.5122 72.9102 75.5967 97.0801 25.5068 21.9521 50.1553 34.0059 69.501 34.0059.1895 0 .3818-.001.5698-.0039 6.0107-.0732 11.1846-1.333 15.8179-3.8506 16.355-8.8848 24.812-34.1348 23.2036-69.2744-1.8442-40.2822-17.1699-89.6504-42.0479-135.4463-21.3712-39.339-47.5118-72.9093-75.5963-97.0792zm33.4971 122.6172c22.8389 42.043 23.3555 79.708 9.5347 87.2158-13.8262 7.5029-45.1396-13.4277-67.9771-55.4678-22.8394-42.043-23.356-79.708-9.5352-87.2158 1.8569-1.0088 4.0278-1.5039 6.4531-1.5039 15.628 0 41.753 20.5772 61.5245 56.9717z"></path><path fill="#ffffff" d="m243.2744 297.9172c7.8142-4.2449 6.8362-21.1472-2.1843-37.7524-9.0205-16.6051-22.6677-26.625-30.4819-22.38s-6.8362 21.1474 2.1843 37.7525 22.6677 26.6249 30.4819 22.3799z"></path><path fill="#ffffff" d="m394.9961 270.2392c-4.2988-16.8457-13.0029-43.7168-30.0562-76.0645l-.4985-.9473c-17.0537-32.3496-34.3052-54.7148-45.7739-67.7812-12.6064-14.3613-21.1865-20.9971-21.5454-21.2725-3.0625-2.3516-7.4463-1.7725-9.8022 1.2871s-1.7842 7.4521 1.271 9.8135c.3193.2461 32.3008 25.3633 63.4653 84.4805l.4985.9473c31.1177 59.0274 33.8076 99.5733 33.8389 100.0977.2061 3.7275 3.293 6.6133 6.9834 6.6133.1265 0 .2549-.0029.3828-.0098 3.8604-.209 6.8213-3.5068 6.6128-7.3672-.0245-.4521-.6514-11.2803-5.3765-29.7969z"></path><path fill="#ffffff" d="m394.2324 177.5498-.6118-1.1621c-39.9697-75.8204-80.3896-107.3487-82.0908-108.6534-3.0669-2.3516-7.4614-1.7744-9.8145 1.293-2.3535 3.0674-1.7744 7.4609 1.293 9.8145.3921.3008 39.6743 30.9414 78.2261 104.0723l.6118 1.1621c30.7231 58.2793 40.6865 106.1719 41.6626 123.3565.2046 3.7295 3.2925 6.6172 6.9839 6.6172.1265 0 .2549-.0029.3828-.0098 3.8604-.209 6.8213-3.5068 6.6128-7.3672-.1153-2.1407-3.2876-53.3058-43.2559-129.1231z"></path><path fill="#ffffff" d="m450.3062 218.9726c-1.2192-3.0859-2.498-6.2354-3.8013-9.3604-6.5488-15.7031-14.0835-31.6582-22.394-47.4219l-.7378-1.4014c-48.1328-91.3047-96.7124-129.2002-98.7568-130.7686-3.0659-2.3516-7.4614-1.7744-9.8145 1.293-2.3535 3.0674-1.7744 7.4609 1.293 9.8145.4761.3652 48.1777 37.5723 94.8931 126.1885l.7378 1.4014c8.1162 15.3945 15.4702 30.9668 21.8579 46.2832 1.2695 3.0439 2.5146 6.1104 3.7012 9.1143 1.0869 2.752 3.7236 4.4307 6.5127 4.4307.8555 0 1.7256-.1582 2.5698-.4912 3.5956-1.421 5.3588-5.4864 3.9389-9.0821z"></path><path fill="#ffffff" d="m458.6665 264.9326c3.6992-1.124 5.7876-5.0332 4.6641-8.7324-.6748-2.2227-1.3843-4.4981-2.1309-6.8262-1.1816-3.6807-5.1235-5.7119-8.8042-4.5264-3.6812 1.1807-5.7075 5.1221-4.5269 8.8037.7241 2.2559 1.4121 4.4629 2.0659 6.6172.9175 3.0215 3.6934 4.9678 6.6958 4.9678.6734 0 1.3585-.0977 2.0362-.3037z"></path><path fill="#ffffff" d="m476.1953 317.5605c-.0293-.5479-.7852-13.6758-6.1685-36.5674-.8848-3.7627-4.6519-6.0908-8.4165-5.2119-3.7632.8857-6.0967 4.6533-5.2114 8.417 5.0317 21.3975 5.8003 33.8389 5.8169 34.1201.2036 3.7305 3.2915 6.6191 6.9839 6.6191.1265 0 .2549-.0029.3828-.0098 3.8604-.2089 6.8213-3.5067 6.6128-7.3671z"></path></g></svg>