<svg xmlns="http://www.w3.org/2000/svg" width="512pt" viewBox="0 0 512 512" height="512pt"><path fill="#ffffff" d="m329.484375 271c-2.566406-17.699219-9.417969-33.882812-19.683594-47.589844l-20.167969 20.167969-21.210937-21.210937 20.167969-20.167969c-13.707032-10.265625-29.890625-17.117188-47.589844-19.683594v28.484375h-30v-28.484375c-17.699219 2.566406-33.882812 9.417969-47.589844 19.683594l20.167969 20.167969-21.210937 21.210937-20.167969-20.167969c-10.265625 13.707032-17.117188 29.890625-19.683594 47.589844h28.484375v30h-28.484375c2.566406 17.699219 9.417969 33.882812 19.683594 47.589844l20.167969-20.167969 21.210937 21.210937-20.167969 20.167969c13.707032 10.265625 29.890625 17.117188 47.589844 19.683594v-28.484375h30v28.484375c17.699219-2.566406 33.882812-9.417969 47.589844-19.683594l-20.167969-20.167969 21.210937-21.210937 20.167969 20.167969c10.265625-13.707032 17.117188-29.890625 19.683594-47.589844h-28.484375v-30zm-103.484375 60c-24.8125 0-45-20.1875-45-45s20.1875-45 45-45 45 20.1875 45 45-20.1875 45-45 45zm0 0"></path><path fill="#ffffff" d="m415.550781 241h96.449219c-7.539062-128.625-112.375-233.460938-241-241v96.449219c71.527344 16.949219 127.601562 73.023437 144.550781 144.550781zm0 0"></path><path fill="#ffffff" d="m226 271c-8.277344 0-15 6.722656-15 15s6.722656 15 15 15 15-6.722656 15-15-6.722656-15-15-15zm0 0"></path><path fill="#ffffff" d="m390.605469 271-2.109375-12.511719c-11.660156-69.066406-65.917969-123.324219-134.984375-134.984375l-12.511719-2.109375v-59.335937c-5.011719-.328125-10.011719-1.058594-15-1.058594-124.070312 0-226 100.929688-226 225s101.929688 226 226 226 225-101.929688 225-226c0-4.988281-.730469-9.988281-1.058594-15zm-164.605469 150c-74.441406 0-135-60.558594-135-135s60.558594-135 135-135 135 60.558594 135 135-60.558594 135-135 135zm0 0"></path></svg>