<svg data-sanitized-data-name="Layer 1" data-name="Layer 1" xmlns="http://www.w3.org/2000/svg" width="512" viewBox="0 0 28 28" height="512" id="Layer_1"><path fill="#ffffff" d="m9 19h-3.5a3.5042 3.5042 0 0 1 -3.5-3.5v-7a3.5042 3.5042 0 0 1 3.5-3.5h13a3.5042 3.5042 0 0 1 3.5 3.5v1.5a1 1 0 0 1 -2 0v-1.5a1.5017 1.5017 0 0 0 -1.5-1.5h-13a1.5017 1.5017 0 0 0 -1.5 1.5v7a1.5017 1.5017 0 0 0 1.5 1.5h3.5a1 1 0 0 1 0 2zm17 1.5v-5a2.5026 2.5026 0 0 0 -2.5-2.5h-9a2.5026 2.5026 0 0 0 -2.5 2.5v5a2.5026 2.5026 0 0 0 2.5 2.5h9a2.5026 2.5026 0 0 0 2.5-2.5zm-2.5-5.5a.5006.5006 0 0 1 .5.5v5a.5006.5006 0 0 1 -.5.5h-9a.5006.5006 0 0 1 -.5-.5v-5a.5006.5006 0 0 1 .5-.5z"></path></svg>