<svg xmlns="http://www.w3.org/2000/svg" width="512" viewBox="0 0 32 32" height="512" id="Image"><path fill="#ffffff" d="m13 5c-3.58 0-13 3.382-13 11s9.42 11 13 11c4.86 0 5-9.874 5-11s-.14-11-5-11zm0 20c-2.652 0-11-2.708-11-9s8.348-9 11-9c1.853 0 3 4.672 3 9s-1.147 9-3 9z"></path><path fill="#ffffff" d="m31 15h-9a1 1 0 0 0 0 2h9a1 1 0 0 0 0-2z"></path><path fill="#ffffff" d="m31 11h-10a1 1 0 0 0 0 2h10a1 1 0 0 0 0-2z"></path><path fill="#ffffff" d="m31 19h-10a1 1 0 0 0 0 2h10a1 1 0 0 0 0-2z"></path><path fill="#ffffff" d="m20 9h11a1 1 0 0 0 0-2h-11a1 1 0 0 0 0 2z"></path><path fill="#ffffff" d="m31 23h-11a1 1 0 0 0 0 2h11a1 1 0 0 0 0-2z"></path></svg>