<svg xmlns="http://www.w3.org/2000/svg" width="512" viewBox="0 0 512 512" height="512" data-sanitized-enable-background="new 0 0 512 512" id="Capa_1"><g><g><path fill="#ffffff" d="m436 202.5c0-3.821-1.458-7.498-4.077-10.281l-120-127.5c-2.835-3.011-6.787-4.719-10.923-4.719h-150c-4.284 0-8.364 1.832-11.211 5.034l-60 67.5c-2.44 2.746-3.789 6.292-3.789 9.966v264.5c0 11.514 4.347 22.033 11.486 30-7.139 7.967-11.486 18.486-11.486 30 0 24.813 20.187 45 45 45h270c24.813 0 45-20.187 45-45 0-11.514-4.347-22.033-11.486-30 7.14-7.967 11.486-18.486 11.486-30zm-180 219.496c-24.813 0-45-20.187-45-45 0-6.178 1.765-17.434 17.025-43.74 7.708-13.288 15.313-24.322 15.633-24.785 2.801-4.054 7.414-6.475 12.342-6.475s9.541 2.42 12.342 6.475c.32.463 7.925 11.497 15.633 24.785 15.26 26.307 17.025 37.562 17.025 43.74 0 24.813-20.187 45-45 45zm110.577-176.967c-5.801 5.464-13.184 8.159-20.566 8.159-7.983 0-15.938-3.164-21.841-9.434l-68.892-73.198c-11.367-12.07-10.781-31.055 1.274-42.407 12.085-11.353 31.084-10.781 42.407 1.274l68.892 73.198c11.367 12.071 10.781 31.055-1.274 42.408z"></path><path fill="#ffffff" d="m241 377.014c0 8.254 6.729 14.983 15 14.983 8.267 0 14.993-6.723 15-14.988-.128-4.602-6.363-17.668-14.997-32.211-8.641 14.558-14.881 27.63-15.003 32.216z"></path></g><path fill="#ffffff" d="m241 0h-90c-8.284 0-15 6.716-15 15v15h120v-15c0-8.284-6.716-15-15-15z"></path></g></svg>