<svg xmlns="http://www.w3.org/2000/svg" width="512" viewBox="0 0 50 50" height="512" data-sanitized-enable-background="new 0 0 50 50" id="Layer_1"><g><path fill="#ffffff" d="m25 .8c-13.4 0-24.2 10.8-24.2 24.2 0 13.3 10.9 24.2 24.2 24.2 13.4 0 24.2-10.9 24.2-24.2 0-13.4-10.8-24.2-24.2-24.2zm10.5 7c1.8 1.1 3.4 2.4 4.7 4-4.6 2.8-8 4.8-11.3 6.6-.1 0-.1.1-.2.2-.1-.1-.3-.1-.4-.2 3.9-5.9 6.3-9.4 6.8-10zm-4.8 16c.2.6-.1 1.3-.7 1.5s-1.3-.1-1.4-.7c-.2-.6.1-1.3.7-1.5.5-.2 1.2.1 1.4.7zm-1.7-18.6c2.1.4 4 1.2 5.8 2.2l-.4.5c-1.8 2.2-4 5-8 9.6 0 .1-.1.1-.1.2-.1 0-.3-.1-.4-.1 1.6-6.9 2.7-10.9 2.9-11.6zm-6.4 19.8c0-1.3 1.1-2.4 2.4-2.4s2.4 1.1 2.4 2.4-1.1 2.4-2.4 2.4-2.4-1.1-2.4-2.4zm.5 4.8c-.4.5-1 .6-1.5.3-.1-.1-.1-.1-.2-.2-.4-.4-.5-1-.1-1.5s1.1-.6 1.6-.3c.5.5.6 1.2.2 1.7zm1-9c0-.6.5-1.2 1.1-1.2s1.1.5 1.1 1.2c0 .6-.5 1.1-1.1 1.1s-1.1-.5-1.1-1.1zm4.1-15.7-.2.7c-.9 2.6-2 5.9-4.2 11.8v.2c-.2 0-.3.1-.5.1-.5-4-1-8.7-1.3-12.7 2.2-.5 3.9-.5 6.2-.1zm-6.4 19.1c-.2.6-.9.9-1.4.7-.6-.2-.9-.8-.7-1.5.2-.6.8-.9 1.4-.7s.9.9.7 1.5zm-.6-19c.1 5.7.1 9.5.1 13.3v.1c-.1.1-.3.2-.4.2-1.9-3.6-3.9-7.8-5.6-11.5 1.8-1 3.8-1.7 5.9-2.1zm-6.6 2.5c2.1 5.3 3.4 8.9 4.6 12.5v.1c-.1.1-.2.3-.3.4-3-2.8-6.3-6-9.2-8.9 1.5-1.7 3.1-3 4.9-4.1zm-5.3 4.6c3.8 4.3 6.3 7.3 8.7 10.2h.1c-.1.2-.1.3-.1.5-3.7-1.6-7.9-3.4-11.7-5.3.6-1.9 1.7-3.8 3-5.4zm-3.4 6.2c5.1 2.8 8.4 4.7 11.6 6.6h.1v.5c-4.1-.2-8.6-.5-12.8-.9 0-2.2.4-4.3 1.1-6.2zm-1.1 7c5.5.8 9.4 1.5 13.2 2.2h.1c.1.2.1.3.2.4-3.9 1.2-8.4 2.5-12.4 3.5-.7-1.9-1-4-1.1-6.1zm1.4 6.9c5.4-1.1 9.3-1.8 13.1-2.4.1 0 .1 0 .1-.1l.3.3c-3.3 2.4-7 5.2-10.4 7.5-1.2-1.5-2.3-3.3-3.1-5.3zm3.7 6c4.9-2.9 8.2-4.9 11.5-6.7.1 0 .1-.1.1-.1.1.1.3.1.4.2-2.2 3.4-4.9 7.3-7.2 10.6-1.8-1.1-3.4-2.4-4.8-4zm5.5 4.4c3.8-4.7 6-7.4 8.5-10.2.1-.1.1-.1.1-.2h.4c-.9 4-2.1 8.6-3.1 12.5-2.1-.4-4.1-1.1-5.9-2.1zm9.6 2.4c-1 0-2-.1-2.9-.2 1.8-5.3 3.1-8.9 4.4-12.4 0-.1 0-.2 0-.3.1 0 .3-.1.4-.1.6 4.8 1 9.5 1.3 12.8-1 .1-2.1.2-3.2.2zm3.4-15c-.5.4-1.2.3-1.6-.3-.4-.5-.3-1.2.3-1.6.5-.4 1.2-.3 1.6.3.3.6.2 1.3-.3 1.6zm.7 14.6c-.1-5.6-.1-9.5-.1-13.2 0-.1 0-.2-.1-.3.1-.1.2-.2.3-.2 2.2 4.4 4.2 8.6 5.6 11.6-1.7.9-3.6 1.7-5.7 2.1zm6.5-2.6c-2-5.2-3.3-8.8-4.6-12.3 0-.1-.1-.2-.2-.3.1-.1.2-.2.2-.3 3.6 3.3 6.9 6.6 9.2 8.9-1.2 1.5-2.8 2.9-4.6 4zm5.2-4.6c-3.6-4.1-6.1-7.1-8.5-10-.1-.1-.2-.2-.3-.2 0-.1.1-.3.1-.4 3.4 1.5 6.6 2.9 11.7 5.3-.7 1.8-1.7 3.7-3 5.3zm3.4-6.2c-4.7-2.6-8.1-4.6-11.4-6.5-.1-.1-.2-.1-.4-.1 0-.1 0-.3 0-.4 3.8.2 7.2.4 12.8.9 0 2.2-.4 4.2-1 6.1zm1-6.8c-5.3-.8-9.2-1.5-12.9-2.2-.1 0-.2 0-.4 0 0-.1-.1-.3-.2-.4 4.7-1.4 9.2-2.7 12.3-3.5.8 1.9 1.2 3.9 1.2 6.1zm-14.3-4.5c-.1 0-.2.1-.3.1-.1-.1-.2-.2-.3-.3 3.9-3 7.7-5.7 10.4-7.5 1.3 1.6 2.3 3.4 3.1 5.4-5.2 1-9.1 1.7-12.9 2.3z"></path><path fill="#ffffff" d="m26.6 25c0-.9-.7-1.6-1.6-1.6s-1.6.7-1.6 1.6.7 1.6 1.6 1.6 1.6-.7 1.6-1.6z"></path></g></svg>