<svg xmlns="http://www.w3.org/2000/svg" width="512" viewBox="0 0 120 120" height="512" fill="none"><g fill="rgb(0,0,0)"><path fill="#ffffff" d="m53.9999 71v3h12v-3c0-3.3137-2.6862-6-6-6-3.3137 0-6 2.6863-6 6z"></path><path fill="#ffffff" fill-rule="evenodd" d="m59.9999 10c-14.3594 0-26 11.6406-26 26v59c0 8.284 6.7158 15 15 15h22c8.2843 0 15-6.716 15-15v-59c0-14.3594-11.6406-26-26-26zm1.864 17.1707c1.0103.4465 1.4674 1.6274 1.0209 2.6377l-3.8144 8.6316h2.3943c2.1683 0 3.6205 2.2294 2.744 4.2126l-4.0461 9.1558c-.4465 1.0103-1.6274 1.4674-2.6377 1.0209-1.0104-.4464-1.4674-1.6274-1.021-2.6377l3.4256-7.7516h-2.3943c-2.1683 0-3.6205-2.2294-2.744-4.2126l4.435-10.0358c.4464-1.0103 1.6274-1.4674 2.6377-1.0209zm8.136 46.9553v-3.126c0-5.5228-4.4771-10-10-10-5.5228 0-10 4.4772-10 10v3.126c-1.7252.4441-3 2.0102-3 3.874v14c0 2.2091 1.7909 4 4 4h18c2.2092 0 4-1.7909 4-4v-14c0-1.8638-1.2747-3.4299-3-3.874z" clip-rule="evenodd"></path><path fill="#ffffff" d="m91.264 48.2484c.9674-.5331 2.1838-.1811 2.7169.7863 1.9369 3.5145 3.0191 7.3888 3.0191 11.4653s-1.0822 7.9508-3.0191 11.4653c-.5331.9674-1.7495 1.3195-2.7169.7863-.9674-.5331-1.3194-1.7495-.7863-2.7169 1.6364-2.9694 2.5223-6.1841 2.5223-9.5347s-.8859-6.5653-2.5223-9.5347c-.5331-.9674-.1811-2.1838.7863-2.7169z"></path><path fill="#ffffff" d="m99.5528 37.7395c-.6962-.8576-1.9558-.9884-2.8133-.2922-.8576.6961-.9884 1.9557-.2922 2.8132 4.7727 5.8792 7.5527 13.0352 7.5527 20.7395s-2.78 14.8603-7.5527 20.7395c-.6962.8575-.5654 2.1171.2922 2.8133.8575.6961 2.1171.5653 2.8133-.2923 5.3012-6.53 8.4472-14.5614 8.4472-23.2605s-3.146-16.7305-8.4472-23.2605z"></path><path fill="#ffffff" d="m28.9653 48.2484c-.9674-.5331-2.1838-.1811-2.717.7863-1.9369 3.5145-3.019 7.3888-3.019 11.4653s1.0821 7.9508 3.019 11.4653c.5332.9674 1.7496 1.3195 2.717.7863.9674-.5331 1.3194-1.7495.7862-2.7169-1.6364-2.9694-2.5222-6.1841-2.5222-9.5347s.8858-6.5653 2.5222-9.5347c.5332-.9674.1812-2.1838-.7862-2.7169z"></path><path fill="#ffffff" d="m20.6765 37.7395c.6962-.8576 1.9557-.9884 2.8133-.2922.8575.6961.9884 1.9557.2922 2.8132-4.7728 5.8792-7.5528 13.0352-7.5528 20.7395s2.78 14.8603 7.5528 20.7395c.6962.8575.5653 2.1171-.2922 2.8133-.8576.6961-2.1171.5653-2.8133-.2923-5.3012-6.53-8.4473-14.5614-8.4473-23.2605s3.1461-16.7305 8.4473-23.2605z"></path></g></svg>