<svg xmlns="http://www.w3.org/2000/svg" width="512" viewBox="0 0 26.458329 26.458335" height="512" id="svg5"><g transform="translate(-121.708 -60.854)" id="layer1"><path fill="#ffffff" d="m137.74405 64.6498a.9261326.9261326 0 0 0 -.6935 1.410766l2.2071 3.550688-3.55069-2.2071a.9261326.9261326 0 0 0 -1.27537 1.275374l2.2071 3.550688-3.55069-2.206584a.9261326.9261326 0 0 0 -1.2423 1.32395l1.98231 2.775541-2.98639-1.8557a.9261326.9261326 0 0 0 -1.27537 1.275374l2.20917 3.551204-3.55276-2.2071a.9261326.9261326 0 0 0 -1.27537 1.275374l2.89078 4.648295-.93586-.340547c-.0468-.06733-.10018-.131188-.1602-.191203-.54456-.544546-1.4274-.544552-1.97197 0-.54457.544553-.54455 1.427403 0 1.971972.51124.511247 1.32035.542176 1.8681.09354l3.0825 1.122412a.9261326.9261326 0 0 0 1.10381-1.35909l-2.2071-3.551205 3.55069 2.207101a.9261326.9261326 0 0 0 1.27537-1.275375l-2.2071-3.550687 3.55069 2.2071a.9261326.9261326 0 0 0 1.2423-1.326017l-1.98438-2.777608 2.98845 1.857251a.9261326.9261326 0 0 0 1.27538-1.275375l-2.20917-3.550687 3.55275 2.2071a.9261326.9261326 0 0 0 1.27538-1.275374l-2.89078-4.648295.93689.340547a1.3944535 1.3944535 0 0 0 .15917.19172 1.3944535 1.3944535 0 0 0 1.97197 0 1.3944535 1.3944535 0 0 0 0-1.971973 1.3944535 1.3944535 0 0 0 -1.86707-.09353l-3.08353-1.121379a.9261326.9261326 0 0 0 -.41031-.05116z" id="path2135-6"></path></g></svg>