<svg xmlns="http://www.w3.org/2000/svg" width="512" viewBox="0 0 511.106 511.106" height="512" data-sanitized-enable-background="new 0 0 511.106 511.106" id="Capa_1"><g><path fill="#ffffff" d="m211.74 218.536c6.984-8.138 16.288-14.219 26.882-17.216v-71.413c-41.737 5.595-77.107 31.571-95.737 67.559z"></path><path fill="#ffffff" d="m274.608 305.471c-6.474 2.672-13.559 4.155-20.986 4.155-6.803 0-13.318-1.245-19.341-3.505l-42.881 58.741c18.831 11.094 40.76 17.47 64.153 17.47 22.888 0 44.378-6.098 62.934-16.753z"></path><path fill="#ffffff" d="m167.521 346.693 42.597-58.353c-7.317-9.365-11.693-21.133-11.693-33.911 0-2.855.218-5.66.638-8.399l-66.709-20.413c-2.334 9.603-3.58 19.626-3.58 29.937-.001 35.741 14.872 68.071 38.747 91.139z"></path><path fill="#ffffff" d="m278.82 254.429c0-13.894-11.304-25.197-25.198-25.197s-25.197 11.303-25.197 25.197 11.303 25.197 25.197 25.197 25.198-11.303 25.198-25.197z"></path><path fill="#ffffff" d="m308.613 249.828c.126 1.518.207 3.05.207 4.6 0 12.138-3.947 23.366-10.613 32.488l44.353 60.759c24.475-23.128 39.773-55.871 39.773-92.123 0-9.395-1.036-18.552-2.984-27.37z"></path><path fill="#ffffff" d="m480.911 270.553v-30h30.195c-1.395-24.309-6.168-47.977-14.107-70.459l-27.947 11.776-11.648-27.646 27.938-11.772c-10.091-20.456-22.983-39.613-38.479-56.996l-21.352 21.352-21.213-21.213 21.352-21.352c-18.176-16.202-38.287-29.564-59.798-39.847l-11.435 28.089-27.785-11.312 11.432-28.08c-21.6-7.329-44.261-11.758-67.511-13.093v30.196h-30v-30.196c-24.308 1.395-47.977 6.168-70.458 14.107l11.776 27.948-27.646 11.648-11.772-27.938c-20.456 10.091-39.612 22.983-56.996 38.479l21.352 21.352-21.213 21.213-21.353-21.353c-16.202 18.175-29.563 38.287-39.847 59.797l28.089 11.435-11.312 27.786-28.08-11.431c-7.328 21.6-11.758 44.261-13.093 67.51h30.195v30h-30.195c1.395 24.308 6.168 47.977 14.107 70.459l27.947-11.776 11.649 27.646-27.939 11.773c10.091 20.456 22.983 39.612 38.479 56.996l21.352-21.352 21.213 21.213-21.352 21.352c18.175 16.202 38.287 29.563 59.797 39.847l11.435-28.088 27.786 11.312-11.431 28.08c21.6 7.329 44.261 11.759 67.51 13.094v-30.196h30v30.196c24.309-1.395 47.977-6.168 70.458-14.107l-11.776-27.948 27.646-11.648 11.772 27.939c20.456-10.091 39.613-22.983 56.996-38.479l-21.352-21.352 21.213-21.213 21.352 21.352c16.202-18.175 29.563-38.287 39.847-59.797l-28.088-11.434 11.311-27.786 28.08 11.431c7.329-21.6 11.759-44.261 13.093-67.51h-30.194zm-225.358 141.78c-86.449 0-156.78-70.331-156.78-156.78s70.331-156.78 156.78-156.78c86.448 0 156.779 70.331 156.779 156.78s-70.331 156.78-156.779 156.78z"></path><path fill="#ffffff" d="m268.621 201.32c11.925 3.373 22.224 10.651 29.41 20.374l71.388-21.844c-18.832-38.34-56.462-65.845-100.798-70.406z"></path></g></svg>